M48
INCH,LZ
;FILE_FORMAT=2:4
;TYPE=PLATED
;Layer: PTH_Through
;EasyEDA v6.5.39, 2024-10-24 09:54:27
;028e3914a6f949ed9ca799ef75e4ed4f,10
;Gerber Generator version 0.2
;Holesize 1 = 0.0120 inch
T01C0.0120
;Holesize 2 = 0.0280 inch
T02C0.0280
;Holesize 3 = 0.0280 inch
T03C0.0280
;Holesize 4 = 0.0320 inch
T04C0.0320
;Holesize 5 = 0.0340 inch
T05C0.0340
;Holesize 6 = 0.0350 inch
T06C0.0350
;Holesize 7 = 0.0360 inch
T07C0.0360
;Holesize 8 = 0.0390 inch
T08C0.0390
;Holesize 9 = 0.1280 inch
T09C0.1280
%
G05
G90
T01
X016300Y009100
X019100Y011950
X019100Y016850
X016300Y018000
X012300Y018000
X016500Y004200
X026500Y005800
X028700Y012700
X028300Y011550
X014350Y010000
X008800Y011050
X013754Y015500
X024550Y021750
X031550Y025100
X029500Y003050
X029501Y003450
X023750Y004900
X020100Y006600
T02
X015250Y005300
X015250Y005800
X015250Y006300
X025700Y009600
X025200Y009600
X024700Y009600
X022000Y009600
X021500Y009600
X021000Y009600
T03
X012400Y010650
X013400Y010650
X002850Y007300
X002850Y006300
X002800Y023150
X002800Y022150
T04
X029850Y022050
X033850Y022050
X029850Y018600
X033850Y018600
X029850Y017450
X033850Y017450
X029850Y016250
X033850Y016250
X029850Y015100
X033850Y015100
X029850Y013900
X033850Y013900
X029850Y012750
X033850Y012750
X029850Y011600
X033850Y011600
X029850Y023200
X033850Y023200
X029850Y024350
X033850Y024350
X029850Y019750
X033850Y019750
X017000Y009850
X017000Y005850
X013850Y004300
X009850Y004300
X033850Y020900
X029850Y020900
X033850Y006950
X029850Y006950
X033850Y008150
X029850Y008150
X033850Y009300
X029850Y009300
X033850Y010450
X029850Y010450
X009750Y016200
X009750Y020200
X008400Y016200
X008400Y020200
X007100Y016250
X007100Y020250
X005800Y016250
X005800Y020250
X004400Y016300
X004400Y020300
X026000Y016000
X022000Y016000
X026000Y017700
X022000Y017700
X026050Y019250
X022050Y019250
X026100Y020850
X022100Y020850
X026100Y022550
X022100Y022550
X014400Y016350
X018400Y016350
X026500Y008200
X026500Y004200
X024650Y008200
X024650Y004200
X022800Y008200
X022800Y004200
X020950Y008150
X020950Y004150
T05
X004450Y009300
X005450Y009300
X006450Y009300
X007450Y009300
X008450Y009300
X009450Y009300
X010450Y009300
X011450Y009300
X012450Y009300
X013450Y009300
X013450Y006300
X012450Y006300
X011450Y006300
X010450Y006300
X007450Y006300
X006450Y006300
X009450Y006300
X008450Y006300
X005450Y006300
X004450Y006300
X004300Y025150
X005300Y025150
X006300Y025150
X007300Y025150
X008300Y025150
X009300Y025150
X010300Y025150
X011300Y025150
X012300Y025150
X013300Y025150
X013300Y022150
X012300Y022150
X011300Y022150
X010300Y022150
X007300Y022150
X006300Y022150
X009300Y022150
X008300Y022150
X005300Y022150
X004300Y022150
T06
X000500Y002150
X037500Y002150
X036500Y002150
X035500Y002150
X034500Y002150
X033500Y002150
X032500Y002150
X031500Y002150
X030500Y002150
X029500Y002150
X028500Y002150
X027500Y002150
X026500Y002150
X025500Y002150
X024500Y002150
X023500Y002150
X022500Y002150
X021500Y002150
X020500Y002150
X019500Y002150
X018500Y002150
X017500Y002150
X016500Y002150
X015500Y002150
X014500Y002150
X013500Y002150
X012500Y002150
X011500Y002150
X010500Y002150
X009500Y002150
X008500Y002150
X007500Y002150
X006500Y002150
X005500Y002150
X004500Y002150
X003500Y002150
X002500Y002150
X001500Y002150
X038500Y002150
X039500Y002150
X000500Y001150
X037500Y001150
X036500Y001150
X035500Y001150
X034500Y001150
X033500Y001150
X032500Y001150
X031500Y001150
X030500Y001150
X029500Y001150
X028500Y001150
X027500Y001150
X026500Y001150
X025500Y001150
X024500Y001150
X023500Y001150
X022500Y001150
X021500Y001150
X020500Y001150
X019500Y001150
X018500Y001150
X017500Y001150
X016500Y001150
X015500Y001150
X014500Y001150
X013500Y001150
X012500Y001150
X011500Y001150
X010500Y001150
X009500Y001150
X008500Y001150
X007500Y001150
X006500Y001150
X005500Y001150
X004500Y001150
X003500Y001150
X002500Y001150
X001500Y001150
X038500Y001150
X039500Y001150
T07
X007350Y004300
X008350Y004300
T08
X006400Y014750
X007400Y014750
X008400Y014750
X009400Y014750
X010400Y014750
X011400Y014750
X012400Y014750
X012400Y011750
X005400Y014750
X004400Y014750
X011400Y011750
X010400Y011750
X009400Y011750
X008400Y011750
X007400Y011750
X006400Y011750
X005400Y011750
X004400Y011750
X013400Y011750
X014400Y011750
X015400Y011750
X016400Y011750
X017400Y011750
X017400Y014750
X016400Y014750
X015400Y014750
X014400Y014750
X013400Y014750
X036909Y009102
X036909Y010193
X036909Y011283
X036909Y012374
X036909Y013464
X036909Y014555
X036909Y015645
X036909Y016736
X036909Y017826
X036909Y018917
X036909Y020008
X036909Y021098
X035791Y008557
X035791Y009647
X035791Y010738
X035791Y011828
X035791Y012919
X035791Y014009
X035791Y015100
X035791Y016191
X035791Y017281
X035791Y018372
X035791Y019462
X035791Y020553
X035791Y021643
X033613Y005650
X030187Y005650
T09
X036350Y005840
X036350Y024360
M30
