M48
INCH,LZ
;FILE_FORMAT=2:4
;TYPE=PLATED
;Layer: PTH_Through_Via
;EasyEDA v6.5.39, 2024-11-06 13:04:30
;028e3914a6f949ed9ca799ef75e4ed4f,10
;Gerber Generator version 0.2
;Holesize 1 = 0.0120 inch
T01C0.0120
%
G05
G90
T01
X016950Y009100
X019650Y011950
X019650Y016850
X016950Y018000
X012950Y018000
X017150Y004200
X027150Y005800
X029350Y012700
X028950Y011550
X015000Y010000
X009450Y011050
X014404Y015500
X025200Y021750
X032200Y025100
X030150Y003050
X030151Y003450
X024400Y004900
X020750Y006600
X020200Y011950
X020200Y004100
X020750Y004100
X020550Y012050
X021250Y016350
M30
