M48
INCH,LZ
;FILE_FORMAT=2:4
;TYPE=PLATED
;Layer: PTH_Through
;EasyEDA v6.5.39, 2024-11-06 13:04:30
;028e3914a6f949ed9ca799ef75e4ed4f,10
;Gerber Generator version 0.2
;Holesize 1 = 0.0120 inch
T01C0.0120
;Holesize 2 = 0.0280 inch
T02C0.0280
;Holesize 3 = 0.0280 inch
T03C0.0280
;Holesize 4 = 0.0320 inch
T04C0.0320
;Holesize 5 = 0.0340 inch
T05C0.0340
;Holesize 6 = 0.0360 inch
T06C0.0360
;Holesize 7 = 0.0390 inch
T07C0.0390
;Holesize 8 = 0.1280 inch
T08C0.1280
%
G05
G90
T01
X016950Y009100
X019650Y011950
X019650Y016850
X016950Y018000
X012950Y018000
X017150Y004200
X027150Y005800
X029350Y012700
X028950Y011550
X015000Y010000
X009450Y011050
X014404Y015500
X025200Y021750
X032200Y025100
X030150Y003050
X030151Y003450
X024400Y004900
X020750Y006600
X020200Y011950
X020200Y004100
X020750Y004100
X020550Y012050
X021250Y016350
T02
X015900Y005300
X015900Y005800
X015900Y006300
X026350Y009600
X025850Y009600
X025350Y009600
X022650Y009600
X022150Y009600
X021650Y009600
T03
X013050Y010650
X014050Y010650
X003500Y007300
X003500Y006300
X003450Y023150
X003450Y022150
T04
X024200Y013750
X020200Y013750
X030500Y022050
X034500Y022050
X030500Y018600
X034500Y018600
X030500Y017450
X034500Y017450
X030500Y016250
X034500Y016250
X030500Y015100
X034500Y015100
X030500Y013900
X034500Y013900
X030500Y012750
X034500Y012750
X030500Y011600
X034500Y011600
X030500Y023200
X034500Y023200
X030500Y024350
X034500Y024350
X030500Y019750
X034500Y019750
X017650Y009850
X017650Y005850
X014500Y004300
X010500Y004300
X034500Y020900
X030500Y020900
X034500Y006950
X030500Y006950
X034500Y008150
X030500Y008150
X034500Y009300
X030500Y009300
X034500Y010450
X030500Y010450
X010400Y016200
X010400Y020200
X009050Y016200
X009050Y020200
X007750Y016250
X007750Y020250
X006450Y016250
X006450Y020250
X005050Y016300
X005050Y020300
X026650Y016000
X022650Y016000
X026650Y017700
X022650Y017700
X026700Y019250
X022700Y019250
X026750Y020850
X022750Y020850
X026750Y022550
X022750Y022550
X015050Y016350
X019050Y016350
X027150Y008200
X027150Y004200
X025300Y008200
X025300Y004200
X023450Y008200
X023450Y004200
X021600Y008150
X021600Y004150
T05
X005100Y009300
X006100Y009300
X007100Y009300
X008100Y009300
X009100Y009300
X010100Y009300
X011100Y009300
X012100Y009300
X013100Y009300
X014100Y009300
X014100Y006300
X013100Y006300
X012100Y006300
X011100Y006300
X008100Y006300
X007100Y006300
X010100Y006300
X009100Y006300
X006100Y006300
X005100Y006300
X004950Y025150
X005950Y025150
X006950Y025150
X007950Y025150
X008950Y025150
X009950Y025150
X010950Y025150
X011950Y025150
X012950Y025150
X013950Y025150
X013950Y022150
X012950Y022150
X011950Y022150
X010950Y022150
X007950Y022150
X006950Y022150
X009950Y022150
X008950Y022150
X005950Y022150
X004950Y022150
T06
X008000Y004300
X009000Y004300
T07
X001149Y000700G85X001151Y000700
X002149Y000700G85X002151Y000700
X003149Y000700G85X003151Y000700
X004149Y000700G85X004151Y000700
X005149Y000700G85X005151Y000700
X006149Y000700G85X006151Y000700
X007149Y000700G85X007151Y000700
X008149Y000700G85X008151Y000700
X009149Y000700G85X009151Y000700
X010149Y000700G85X010151Y000700
X011149Y000700G85X011151Y000700
X012149Y000700G85X012151Y000700
X013149Y000700G85X013151Y000700
X014149Y000700G85X014151Y000700
X015149Y000700G85X015151Y000700
X016149Y000700G85X016151Y000700
X017149Y000700G85X017151Y000700
X018149Y000700G85X018151Y000700
X019149Y000700G85X019151Y000700
X020149Y000700G85X020151Y000700
X021149Y000700G85X021151Y000700
X022149Y000700G85X022151Y000700
X023149Y000700G85X023151Y000700
X024149Y000700G85X024151Y000700
X025149Y000700G85X025151Y000700
X026149Y000700G85X026151Y000700
X027149Y000700G85X027151Y000700
X028149Y000700G85X028151Y000700
X029149Y000700G85X029151Y000700
X030149Y000700G85X030151Y000700
X031149Y000700G85X031151Y000700
X032149Y000700G85X032151Y000700
X033149Y000700G85X033151Y000700
X034149Y000700G85X034151Y000700
X035149Y000700G85X035151Y000700
X036149Y000700G85X036151Y000700
X037149Y000700G85X037151Y000700
X038149Y000700G85X038151Y000700
X039149Y000700G85X039151Y000700
X040149Y000700G85X040151Y000700
X001150Y001699G85X001150Y001701
X002150Y001699G85X002150Y001701
X003150Y001699G85X003150Y001701
X004150Y001699G85X004150Y001701
X005150Y001699G85X005150Y001701
X006150Y001699G85X006150Y001701
X007150Y001699G85X007150Y001701
X008150Y001699G85X008150Y001701
X009150Y001699G85X009150Y001701
X010150Y001699G85X010150Y001701
X011150Y001699G85X011150Y001701
X012150Y001699G85X012150Y001701
X013150Y001699G85X013150Y001701
X014150Y001699G85X014150Y001701
X015150Y001699G85X015150Y001701
X016150Y001699G85X016150Y001701
X017150Y001699G85X017150Y001701
X018150Y001699G85X018150Y001701
X019150Y001699G85X019150Y001701
X020150Y001699G85X020150Y001701
X021150Y001699G85X021150Y001701
X022150Y001699G85X022150Y001701
X023150Y001699G85X023150Y001701
X024150Y001699G85X024150Y001701
X025150Y001699G85X025150Y001701
X026150Y001699G85X026150Y001701
X027150Y001699G85X027150Y001701
X028150Y001699G85X028150Y001701
X029150Y001699G85X029150Y001701
X030150Y001699G85X030150Y001701
X031150Y001699G85X031150Y001701
X032150Y001699G85X032150Y001701
X033150Y001699G85X033150Y001701
X034150Y001699G85X034150Y001701
X035150Y001699G85X035150Y001701
X036150Y001699G85X036150Y001701
X037150Y001699G85X037150Y001701
X038150Y001699G85X038150Y001701
X039150Y001699G85X039150Y001701
X040150Y001699G85X040150Y001701
X007050Y014750
X008050Y014750
X009050Y014750
X010050Y014750
X011050Y014750
X012050Y014750
X013050Y014750
X013050Y011750
X006050Y014750
X005050Y014750
X012050Y011750
X011050Y011750
X010050Y011750
X009050Y011750
X008050Y011750
X007050Y011750
X006050Y011750
X005050Y011750
X014050Y011750
X015050Y011750
X016050Y011750
X017050Y011750
X018050Y011750
X018050Y014750
X017050Y014750
X016050Y014750
X015050Y014750
X014050Y014750
X037559Y009102
X037559Y010193
X037559Y011283
X037559Y012374
X037559Y013464
X037559Y014555
X037559Y015645
X037559Y016736
X037559Y017827
X037559Y018917
X037559Y020008
X037559Y021098
X036441Y008557
X036441Y009647
X036441Y010738
X036441Y011829
X036441Y012919
X036441Y014010
X036441Y015100
X036441Y016191
X036441Y017281
X036441Y018372
X036441Y019462
X036441Y020553
X036441Y021643
X034263Y005650
X030837Y005650
T08
X037000Y005840
X037000Y024360
M30
