G04 Layer: TopSolderMaskLayer*
G04 EasyEDA v6.5.39, 2024-11-06 13:04:30*
G04 028e3914a6f949ed9ca799ef75e4ed4f,10*
G04 Gerber Generator version 0.2*
G04 Scale: 100 percent, Rotated: No, Reflected: No *
G04 Dimensions in inches *
G04 leading zeros omitted , absolute positions ,3 integer and 6 decimal *
%FSLAX36Y36*%
%MOIN*%

%AMMACRO1*1,1,$1,$2,$3*1,1,$1,$4,$5*1,1,$1,0-$2,0-$3*1,1,$1,0-$4,0-$5*20,1,$1,$2,$3,$4,$5,0*20,1,$1,$4,$5,0-$2,0-$3,0*20,1,$1,0-$2,0-$3,0-$4,0-$5,0*20,1,$1,0-$4,0-$5,$2,$3,0*4,1,4,$2,$3,$4,$5,0-$2,0-$3,0-$4,0-$5,$2,$3,0*%
%ADD10MACRO1,0.004X-0.0335X0.0335X0.0335X0.0335*%
%ADD11O,0.070929X0.070929*%
%ADD12C,0.0709*%
%ADD13C,0.0867*%
%ADD14O,0.066992X0.066992*%
%ADD15R,0.0670X0.0670*%
%ADD16C,0.0631*%
%ADD17C,0.2008*%
%ADD18C,0.0630*%
%ADD19R,0.0630X0.0630*%
%ADD20C,0.0749*%
%ADD21O,0.066992X0.039432999999999996*%
%ADD22MACRO1,0.004X0.0315X0.0177X0.0315X-0.0177*%
%ADD23O,0.039432999999999996X0.066992*%
%ADD24MACRO1,0.004X-0.0177X0.0315X0.0177X0.0315*%
%ADD25C,0.0590*%
%ADD26C,0.0640*%
%ADD27C,0.0148*%

%LPD*%
D10*
G01*
X115000Y70000D03*
D11*
G01*
X215000Y70000D03*
G01*
X315000Y70000D03*
G01*
X415000Y70000D03*
G01*
X515000Y70000D03*
G01*
X615000Y70000D03*
G01*
X715000Y70000D03*
G01*
X815000Y70000D03*
G01*
X915000Y70000D03*
G01*
X1015000Y70000D03*
G01*
X1115000Y70000D03*
G01*
X1215000Y70000D03*
G01*
X1315000Y70000D03*
G01*
X1415000Y70000D03*
G01*
X1515000Y70000D03*
G01*
X1615000Y70000D03*
G01*
X1715000Y70000D03*
G01*
X1815000Y70000D03*
G01*
X1915000Y70000D03*
G01*
X2015000Y70000D03*
G01*
X2115000Y70000D03*
G01*
X2215000Y70000D03*
G01*
X2315000Y70000D03*
G01*
X2415000Y70000D03*
G01*
X2515000Y70000D03*
G01*
X2615000Y70000D03*
G01*
X2715000Y70000D03*
G01*
X2815000Y70000D03*
G01*
X2915000Y70000D03*
G01*
X3015000Y70000D03*
G01*
X3115000Y70000D03*
G01*
X3215000Y70000D03*
G01*
X3315000Y70000D03*
G01*
X3415000Y70000D03*
G01*
X3515000Y70000D03*
G01*
X3615000Y70000D03*
G01*
X3715000Y70000D03*
G01*
X3815000Y70000D03*
G01*
X3915000Y70000D03*
G01*
X4015000Y70000D03*
D12*
G01*
X115000Y170000D03*
G01*
X215000Y170000D03*
G01*
X315000Y170000D03*
G01*
X415000Y170000D03*
G01*
X515000Y170000D03*
G01*
X615000Y170000D03*
G01*
X715000Y170000D03*
G01*
X815000Y170000D03*
G01*
X915000Y170000D03*
G01*
X1015000Y170000D03*
G01*
X1115000Y170000D03*
G01*
X1215000Y170000D03*
G01*
X1315000Y170000D03*
G01*
X1415000Y170000D03*
G01*
X1515000Y170000D03*
G01*
X1615000Y170000D03*
G01*
X1715000Y170000D03*
G01*
X1815000Y170000D03*
G01*
X1915000Y170000D03*
G01*
X2015000Y170000D03*
G01*
X2115000Y170000D03*
G01*
X2215000Y170000D03*
G01*
X2315000Y170000D03*
G01*
X2415000Y170000D03*
G01*
X2515000Y170000D03*
G01*
X2615000Y170000D03*
G01*
X2715000Y170000D03*
G01*
X2815000Y170000D03*
G01*
X2915000Y170000D03*
G01*
X3015000Y170000D03*
G01*
X3115000Y170000D03*
G01*
X3215000Y170000D03*
G01*
X3315000Y170000D03*
G01*
X3415000Y170000D03*
G01*
X3515000Y170000D03*
G01*
X3615000Y170000D03*
G01*
X3715000Y170000D03*
G01*
X3815000Y170000D03*
G01*
X3915000Y170000D03*
G01*
X4015000Y170000D03*
D13*
G01*
X2420000Y1375000D03*
G01*
X2020000Y1375000D03*
D14*
G01*
X705000Y1475000D03*
G01*
X805000Y1475000D03*
G01*
X905000Y1475000D03*
G01*
X1005000Y1475000D03*
G01*
X1105000Y1475000D03*
G01*
X1205000Y1475000D03*
G01*
X1305000Y1475000D03*
G01*
X1305000Y1175000D03*
G01*
X605000Y1475000D03*
G01*
X505000Y1475000D03*
G01*
X1205000Y1175000D03*
G01*
X1105000Y1175000D03*
G01*
X1005000Y1175000D03*
G01*
X905000Y1175000D03*
G01*
X805000Y1175000D03*
G01*
X705000Y1175000D03*
G01*
X605000Y1175000D03*
D15*
G01*
X505000Y1175000D03*
D14*
G01*
X1405000Y1175000D03*
G01*
X1505000Y1175000D03*
G01*
X1605000Y1175000D03*
G01*
X1705000Y1175000D03*
G01*
X1805000Y1175000D03*
G01*
X1805000Y1475000D03*
G01*
X1705000Y1475000D03*
G01*
X1605000Y1475000D03*
G01*
X1505000Y1475000D03*
G01*
X1405000Y1475000D03*
D16*
G01*
X510000Y930000D03*
G01*
X610000Y930000D03*
G01*
X710000Y930000D03*
G01*
X810000Y930000D03*
G01*
X910000Y930000D03*
G01*
X1010000Y930000D03*
G01*
X1110000Y930000D03*
G01*
X1210000Y930000D03*
G01*
X1310000Y930000D03*
G01*
X1410000Y930000D03*
G01*
X1410000Y630000D03*
G01*
X1310000Y630000D03*
G01*
X1210000Y630000D03*
G01*
X1110000Y630000D03*
G01*
X810000Y630000D03*
G01*
X710000Y630000D03*
G01*
X1010000Y630000D03*
G01*
X910000Y630000D03*
G01*
X610000Y630000D03*
G01*
X510000Y630000D03*
D17*
G01*
X3699989Y584020D03*
G01*
X3699989Y2435979D03*
D18*
G01*
X3755889Y910199D03*
G01*
X3755889Y1019250D03*
G01*
X3755889Y1128310D03*
G01*
X3755889Y1237359D03*
G01*
X3755889Y1346419D03*
G01*
X3755889Y1455470D03*
G01*
X3755889Y1564529D03*
G01*
X3755889Y1673580D03*
G01*
X3755889Y1782640D03*
G01*
X3755889Y1891689D03*
G01*
X3755889Y2000749D03*
G01*
X3755889Y2109800D03*
G01*
X3644080Y855670D03*
G01*
X3644080Y964729D03*
G01*
X3644080Y1073780D03*
G01*
X3644080Y1182840D03*
G01*
X3644080Y1291889D03*
G01*
X3644080Y1400940D03*
G01*
X3644080Y1510000D03*
G01*
X3644080Y1619059D03*
G01*
X3644080Y1728110D03*
G01*
X3644080Y1837170D03*
G01*
X3644080Y1946219D03*
G01*
X3644080Y2055270D03*
D19*
G01*
X3644080Y2164330D03*
D20*
G01*
X3426260Y565000D03*
G01*
X3083739Y565000D03*
D16*
G01*
X495000Y2515000D03*
G01*
X595000Y2515000D03*
G01*
X695000Y2515000D03*
G01*
X795000Y2515000D03*
G01*
X895000Y2515000D03*
G01*
X995000Y2515000D03*
G01*
X1095000Y2515000D03*
G01*
X1195000Y2515000D03*
G01*
X1295000Y2515000D03*
G01*
X1395000Y2515000D03*
G01*
X1395000Y2215000D03*
G01*
X1295000Y2215000D03*
G01*
X1195000Y2215000D03*
G01*
X1095000Y2215000D03*
G01*
X795000Y2215000D03*
G01*
X695000Y2215000D03*
G01*
X995000Y2215000D03*
G01*
X895000Y2215000D03*
G01*
X595000Y2215000D03*
G01*
X495000Y2215000D03*
D21*
G01*
X1590000Y530000D03*
G01*
X1590000Y580000D03*
D22*
G01*
X1590000Y629999D03*
D23*
G01*
X2635000Y960000D03*
G01*
X2585000Y960000D03*
D24*
G01*
X2535000Y960000D03*
D23*
G01*
X2265000Y960000D03*
G01*
X2215000Y960000D03*
D24*
G01*
X2165000Y960000D03*
D13*
G01*
X3050000Y2205000D03*
G01*
X3450000Y2205000D03*
G01*
X3050000Y1860000D03*
G01*
X3450000Y1860000D03*
G01*
X3050000Y1745000D03*
G01*
X3450000Y1745000D03*
G01*
X3050000Y1625000D03*
G01*
X3450000Y1625000D03*
G01*
X3050000Y1510000D03*
G01*
X3450000Y1510000D03*
G01*
X3050000Y1390000D03*
G01*
X3450000Y1390000D03*
G01*
X3050000Y1275000D03*
G01*
X3450000Y1275000D03*
G01*
X3050000Y1160000D03*
G01*
X3450000Y1160000D03*
G01*
X3050000Y2320000D03*
G01*
X3450000Y2320000D03*
G01*
X3050000Y2435000D03*
G01*
X3450000Y2435000D03*
G01*
X3050000Y1975000D03*
G01*
X3450000Y1975000D03*
G01*
X1765000Y985000D03*
G01*
X1765000Y585000D03*
G01*
X1450000Y430000D03*
G01*
X1050000Y430000D03*
G01*
X3450000Y2090000D03*
G01*
X3050000Y2090000D03*
G01*
X3450000Y695000D03*
G01*
X3050000Y695000D03*
G01*
X3450000Y815000D03*
G01*
X3050000Y815000D03*
G01*
X3450000Y930000D03*
G01*
X3050000Y930000D03*
G01*
X3450000Y1045000D03*
G01*
X3050000Y1045000D03*
G01*
X1040000Y1620000D03*
G01*
X1040000Y2020000D03*
G01*
X905000Y1620000D03*
G01*
X905000Y2020000D03*
G01*
X775000Y1625000D03*
G01*
X775000Y2025000D03*
G01*
X645000Y1625000D03*
G01*
X645000Y2025000D03*
G01*
X505000Y1630000D03*
G01*
X505000Y2030000D03*
G01*
X2665000Y1600000D03*
G01*
X2265000Y1600000D03*
G01*
X2665000Y1770000D03*
G01*
X2265000Y1770000D03*
G01*
X2670000Y1925000D03*
G01*
X2270000Y1925000D03*
G01*
X2675000Y2085000D03*
G01*
X2275000Y2085000D03*
G01*
X2675000Y2255000D03*
G01*
X2275000Y2255000D03*
G01*
X1505000Y1635000D03*
G01*
X1905000Y1635000D03*
G01*
X2715000Y820000D03*
G01*
X2715000Y420000D03*
G01*
X2530000Y820000D03*
G01*
X2530000Y420000D03*
G01*
X2345000Y820000D03*
G01*
X2345000Y420000D03*
G01*
X2160000Y815000D03*
G01*
X2160000Y415000D03*
D25*
G01*
X1305000Y1065000D03*
G01*
X1405000Y1065000D03*
G01*
X350000Y730000D03*
G01*
X350000Y630000D03*
G01*
X345000Y2315000D03*
G01*
X345000Y2215000D03*
D26*
G01*
X800000Y430000D03*
G01*
X900000Y430000D03*
M02*
