G04 Layer: BottomLayer*
G04 EasyEDA v6.5.39, 2024-11-06 13:04:30*
G04 028e3914a6f949ed9ca799ef75e4ed4f,10*
G04 Gerber Generator version 0.2*
G04 Scale: 100 percent, Rotated: No, Reflected: No *
G04 Dimensions in inches *
G04 leading zeros omitted , absolute positions ,3 integer and 6 decimal *
%FSLAX36Y36*%
%MOIN*%

%AMMACRO1*21,1,$1,$2,0,0,$3*%
%ADD10C,0.0100*%
%ADD11C,0.0500*%
%ADD12MACRO1,0.067X0.067X0.0000*%
%ADD13O,0.066929X0.066929*%
%ADD14C,0.0669*%
%ADD15C,0.0787*%
%ADD16O,0.06299199999999999X0.06299199999999999*%
%ADD17R,0.0630X0.0630*%
%ADD18C,0.0591*%
%ADD19C,0.1968*%
%ADD20R,0.0591X0.0591*%
%ADD21C,0.0709*%
%ADD22O,0.06299199999999999X0.035433*%
%ADD23R,0.0630X0.0354*%
%ADD24O,0.035433X0.06299199999999999*%
%ADD25R,0.0354X0.0630*%
%ADD26C,0.0550*%
%ADD27C,0.0600*%
%ADD28C,0.0244*%
%ADD29C,0.0153*%

%LPD*%
D10*
X2125000Y1635000D02*
G01*
X1905000Y1635000D01*
X2075000Y410000D02*
G01*
X2075000Y455000D01*
X2045000Y485000D01*
X2055000Y1205000D01*
D11*
X2715000Y820000D02*
G01*
X2715000Y580000D01*
X2715000Y820000D02*
G01*
X2635000Y900000D01*
X2635000Y960000D01*
X2635000Y960000D02*
G01*
X2635000Y1070000D01*
X2265000Y1070000D01*
X1805000Y1475000D02*
G01*
X2260000Y1475000D01*
X2265000Y1470000D01*
X2265000Y960000D01*
X2345000Y820000D02*
G01*
X2265000Y900000D01*
X2265000Y960000D01*
X3083739Y565000D02*
G01*
X3083530Y565210D01*
X2815000Y565210D01*
X595000Y2515000D02*
G01*
X595000Y2420000D01*
X515000Y2340000D01*
X515000Y2235000D01*
X495000Y2215000D01*
D10*
X2075000Y660000D02*
G01*
X2075000Y815000D01*
X2160000Y815000D01*
X2440000Y490000D02*
G01*
X2440000Y820000D01*
X2530000Y820000D01*
X3220000Y2510000D02*
G01*
X3220000Y750000D01*
X3395000Y750000D01*
X3450000Y695000D01*
X1195000Y2215000D02*
G01*
X1250000Y2270000D01*
X2070000Y2270000D01*
X2070000Y2175000D01*
X2520000Y2175000D01*
D11*
X350000Y730000D02*
G01*
X215000Y730000D01*
X215000Y930000D01*
X510000Y930000D01*
X345000Y2315000D02*
G01*
X220000Y2315000D01*
X215000Y930000D01*
X510000Y930000D01*
D10*
X710000Y930000D02*
G01*
X710000Y1055000D01*
X655000Y1110000D01*
X655000Y1330000D01*
X1255000Y1330000D01*
X1250000Y1335000D01*
X1250000Y1550000D01*
X1295000Y1550000D01*
X1440380Y1550000D01*
X945000Y1105000D02*
G01*
X910000Y1070000D01*
X910000Y930000D01*
X1500000Y1000000D02*
G01*
X1170000Y1000000D01*
X1110000Y940000D01*
X1110000Y930000D01*
X2895000Y1155000D02*
G01*
X2900000Y1160000D01*
X3050000Y1160000D01*
X2935000Y1270000D02*
G01*
X2940000Y1275000D01*
X3050000Y1275000D01*
X3050000Y1045000D02*
G01*
X3150000Y1045000D01*
X3150000Y2090000D01*
X3050000Y2090000D01*
X3426260Y565000D02*
G01*
X3296260Y695000D01*
X3050000Y695000D01*
X3644076Y964733D02*
G01*
X3494341Y815000D01*
X3450000Y815000D01*
X3644076Y1073784D02*
G01*
X3500288Y930000D01*
X3450000Y930000D01*
X3644076Y1182844D02*
G01*
X3506229Y1045000D01*
X3450000Y1045000D01*
X3644076Y1291894D02*
G01*
X3512178Y1160000D01*
X3450000Y1160000D01*
X3644076Y1400945D02*
G01*
X3518130Y1275000D01*
X3450000Y1275000D01*
X3644076Y1510005D02*
G01*
X3524071Y1390000D01*
X3450000Y1390000D01*
X1095000Y2515000D02*
G01*
X1175000Y2595000D01*
X2940000Y2595000D01*
X2970000Y2565000D01*
X2970000Y1975000D01*
X3050000Y1975000D01*
X3050000Y815000D02*
G01*
X3050000Y1045000D01*
X3050000Y695000D02*
G01*
X3050000Y815000D01*
X3644076Y1619065D02*
G01*
X3535010Y1510000D01*
X3450000Y1510000D01*
X3644076Y1728114D02*
G01*
X3540961Y1625000D01*
X3450000Y1625000D01*
X3644076Y1837175D02*
G01*
X3551899Y1745000D01*
X3450000Y1745000D01*
X3644076Y1946226D02*
G01*
X3557852Y1860000D01*
X3450000Y1860000D01*
X3755883Y2000754D02*
G01*
X3570000Y2000754D01*
X3480752Y2090000D01*
X3450000Y2090000D01*
X3644076Y2055275D02*
G01*
X3494350Y2205000D01*
X3450000Y2205000D01*
X3644076Y2164335D02*
G01*
X3488413Y2320000D01*
X3450000Y2320000D01*
X3755897Y2109800D02*
G01*
X3755073Y2225185D01*
X3695258Y2285000D01*
X3620000Y2285000D01*
X3470000Y2435000D01*
X3450000Y2435000D01*
D11*
X3755883Y1019254D02*
G01*
X3755883Y910205D01*
X3755883Y1128314D02*
G01*
X3755883Y1019254D01*
X3755883Y1237366D02*
G01*
X3755883Y1128314D01*
X3755883Y1346426D02*
G01*
X3755883Y1237366D01*
X3755883Y1455475D02*
G01*
X3755883Y1346426D01*
X3755883Y1564535D02*
G01*
X3755883Y1455475D01*
X3755883Y1673584D02*
G01*
X3755883Y1564535D01*
X3755883Y1782644D02*
G01*
X3755883Y1673584D01*
X3755883Y1782644D02*
G01*
X3757318Y1781210D01*
X4010000Y1781210D01*
D10*
X1295000Y1800000D02*
G01*
X1295000Y2215000D01*
X1965000Y1685000D02*
G01*
X1965000Y1800000D01*
X1695000Y1800000D01*
X1765000Y985000D02*
G01*
X1965000Y985000D01*
X1965000Y1195000D01*
X1295000Y2515000D02*
G01*
X1145000Y2365000D01*
X1145000Y2140000D01*
X1040000Y2035000D01*
X1040000Y2020000D01*
X1705000Y1175000D02*
G01*
X1695000Y1165000D01*
X1695000Y910000D01*
D11*
X2665000Y1600000D02*
G01*
X2815000Y1600000D01*
X2815000Y340000D01*
X2530000Y340000D01*
X1610000Y1475000D02*
G01*
X1710000Y1475000D01*
X1605000Y1475000D02*
G01*
X1605000Y2215000D01*
X1395000Y2215000D01*
D10*
X1605000Y1175000D02*
G01*
X1605000Y1240000D01*
X2215000Y1240000D01*
X2215000Y960000D01*
D11*
X1405000Y1065000D02*
G01*
X1585000Y1065000D01*
X1590000Y1060000D01*
X1590000Y630000D01*
X1405000Y1175000D02*
G01*
X1405000Y1065000D01*
X1305000Y1175000D02*
G01*
X1305000Y1065000D01*
D10*
X1205000Y1475000D02*
G01*
X1205000Y1375000D01*
X550000Y1375000D01*
X550000Y1550000D01*
X575000Y1575000D01*
X575000Y2090000D01*
X595000Y2110000D01*
X595000Y2215000D01*
X1105000Y1475000D02*
G01*
X1105000Y1405000D01*
X855000Y1405000D01*
X855000Y1535000D01*
X840000Y1550000D01*
X840000Y2075000D01*
X795000Y2120000D01*
X795000Y2215000D01*
X1005000Y1475000D02*
G01*
X975000Y1505000D01*
X975000Y2060000D01*
X995000Y2080000D01*
X995000Y2215000D01*
X1210000Y930000D02*
G01*
X1150000Y870000D01*
X955000Y870000D01*
X955000Y1055000D01*
X1005000Y1105000D01*
X1005000Y1175000D01*
D11*
X350000Y730000D02*
G01*
X215000Y730000D01*
X215000Y340000D01*
X805000Y340000D01*
X805000Y435000D01*
X800000Y430000D02*
G01*
X800000Y340000D01*
X1815000Y340000D01*
D10*
X1010000Y930000D02*
G01*
X1105000Y1025000D01*
X1105000Y1175000D01*
X1050000Y430000D02*
G01*
X900000Y430000D01*
X1450000Y430000D02*
G01*
X1585000Y430000D01*
X1590000Y435000D01*
X1590000Y530000D01*
X1765000Y585000D02*
G01*
X1595000Y585000D01*
X1590000Y580000D01*
D11*
X1410000Y630000D02*
G01*
X1590000Y630000D01*
X495000Y2215000D02*
G01*
X345000Y2215000D01*
X345000Y2315000D02*
G01*
X345000Y2365000D01*
X495000Y2515000D01*
D10*
X1210000Y630000D02*
G01*
X1005000Y835000D01*
X860000Y835000D01*
X860000Y1055000D01*
X805000Y1110000D01*
X805000Y1175000D01*
X1010000Y630000D02*
G01*
X850000Y790000D01*
X760000Y790000D01*
X760000Y1055000D01*
X705000Y1110000D01*
X705000Y1175000D01*
X810000Y630000D02*
G01*
X810000Y655000D01*
X664348Y800652D01*
X664348Y1050000D01*
X605000Y1109348D01*
X605000Y1175000D01*
D11*
X2665000Y1770000D02*
G01*
X2665000Y1600000D01*
X2670000Y1925000D02*
G01*
X2670000Y1775000D01*
X2665000Y1770000D01*
X2675000Y2085000D02*
G01*
X2675000Y1930000D01*
X2670000Y1925000D01*
X2675000Y2255000D02*
G01*
X2675000Y2085000D01*
X2530000Y420000D02*
G01*
X2530000Y340000D01*
X2160000Y340000D01*
X2160000Y415000D01*
D10*
X1505000Y1635000D02*
G01*
X1505000Y1475000D01*
D11*
X350000Y630000D02*
G01*
X510000Y630000D01*
D10*
X610000Y930000D02*
G01*
X610000Y875000D01*
X515000Y780000D01*
X515000Y635000D01*
X510000Y630000D01*
D11*
X1405000Y1175000D02*
G01*
X1405000Y1275000D01*
X1605000Y1475000D01*
D10*
X2715000Y420000D02*
G01*
X2585000Y550000D01*
X2585000Y960000D01*
X2345000Y420000D02*
G01*
X2215000Y550000D01*
X2215000Y960000D01*
X2530000Y820000D02*
G01*
X2535000Y825000D01*
X2535000Y960000D01*
X2160000Y815000D02*
G01*
X2165000Y820000D01*
X2165000Y960000D01*
D11*
X1715000Y170000D02*
G01*
X1715000Y70000D01*
X1815000Y170000D02*
G01*
X1815000Y70000D01*
D10*
X3644076Y855673D02*
G01*
X3483397Y695000D01*
X3450000Y695000D01*
X4015000Y170000D02*
G01*
X4015000Y70000D01*
X3715000Y70000D02*
G01*
X3710000Y70000D01*
X3015000Y305000D02*
G01*
X3665000Y310000D01*
X3665000Y120000D01*
X3715000Y70000D01*
X3815000Y70000D02*
G01*
X3810000Y70000D01*
X3765000Y115000D01*
X3765000Y345000D01*
X3010000Y345000D01*
D11*
X3915000Y170000D02*
G01*
X3915000Y584740D01*
X3915000Y70000D02*
G01*
X3915000Y170000D01*
X3700000Y2436001D02*
G01*
X4015000Y2435000D01*
X4010000Y2430000D01*
X4010000Y625000D01*
X4010000Y585000D01*
X3700000Y583998D01*
X1590000Y768899D02*
G01*
X1591099Y770000D01*
X1910000Y770000D01*
X1910000Y420000D01*
X1715000Y420000D01*
X1815000Y170000D02*
G01*
X1815000Y340000D01*
X2160000Y340000D01*
X2160000Y415000D01*
X2420000Y1375000D02*
G01*
X2815000Y1375000D01*
D10*
X2020000Y1195000D02*
G01*
X2020000Y410000D01*
D12*
G01*
X115000Y70000D03*
D13*
G01*
X215000Y70000D03*
G01*
X315000Y70000D03*
G01*
X415000Y70000D03*
G01*
X515000Y70000D03*
G01*
X615000Y70000D03*
G01*
X715000Y70000D03*
G01*
X815000Y70000D03*
G01*
X915000Y70000D03*
G01*
X1015000Y70000D03*
G01*
X1115000Y70000D03*
G01*
X1215000Y70000D03*
G01*
X1315000Y70000D03*
G01*
X1415000Y70000D03*
G01*
X1515000Y70000D03*
G01*
X1615000Y70000D03*
G01*
X1715000Y70000D03*
G01*
X1815000Y70000D03*
G01*
X1915000Y70000D03*
G01*
X2015000Y70000D03*
G01*
X2115000Y70000D03*
G01*
X2215000Y70000D03*
G01*
X2315000Y70000D03*
G01*
X2415000Y70000D03*
G01*
X2515000Y70000D03*
G01*
X2615000Y70000D03*
G01*
X2715000Y70000D03*
G01*
X2815000Y70000D03*
G01*
X2915000Y70000D03*
G01*
X3015000Y70000D03*
G01*
X3115000Y70000D03*
G01*
X3215000Y70000D03*
G01*
X3315000Y70000D03*
G01*
X3415000Y70000D03*
G01*
X3515000Y70000D03*
G01*
X3615000Y70000D03*
G01*
X3715000Y70000D03*
G01*
X3815000Y70000D03*
G01*
X3915000Y70000D03*
G01*
X4015000Y70000D03*
D14*
G01*
X115000Y170000D03*
G01*
X215000Y170000D03*
G01*
X315000Y170000D03*
G01*
X415000Y170000D03*
G01*
X515000Y170000D03*
G01*
X615000Y170000D03*
G01*
X715000Y170000D03*
G01*
X815000Y170000D03*
G01*
X915000Y170000D03*
G01*
X1015000Y170000D03*
G01*
X1115000Y170000D03*
G01*
X1215000Y170000D03*
G01*
X1315000Y170000D03*
G01*
X1415000Y170000D03*
G01*
X1515000Y170000D03*
G01*
X1615000Y170000D03*
G01*
X1715000Y170000D03*
G01*
X1815000Y170000D03*
G01*
X1915000Y170000D03*
G01*
X2015000Y170000D03*
G01*
X2115000Y170000D03*
G01*
X2215000Y170000D03*
G01*
X2315000Y170000D03*
G01*
X2415000Y170000D03*
G01*
X2515000Y170000D03*
G01*
X2615000Y170000D03*
G01*
X2715000Y170000D03*
G01*
X2815000Y170000D03*
G01*
X2915000Y170000D03*
G01*
X3015000Y170000D03*
G01*
X3115000Y170000D03*
G01*
X3215000Y170000D03*
G01*
X3315000Y170000D03*
G01*
X3415000Y170000D03*
G01*
X3515000Y170000D03*
G01*
X3615000Y170000D03*
G01*
X3715000Y170000D03*
G01*
X3815000Y170000D03*
G01*
X3915000Y170000D03*
G01*
X4015000Y170000D03*
D15*
G01*
X2420000Y1375000D03*
G01*
X2020000Y1375000D03*
D16*
G01*
X705000Y1475000D03*
G01*
X805000Y1475000D03*
G01*
X905000Y1475000D03*
G01*
X1005000Y1475000D03*
G01*
X1105000Y1475000D03*
G01*
X1205000Y1475000D03*
G01*
X1305000Y1475000D03*
G01*
X1305000Y1175000D03*
G01*
X605000Y1475000D03*
G01*
X505000Y1475000D03*
G01*
X1205000Y1175000D03*
G01*
X1105000Y1175000D03*
G01*
X1005000Y1175000D03*
G01*
X905000Y1175000D03*
G01*
X805000Y1175000D03*
G01*
X705000Y1175000D03*
G01*
X605000Y1175000D03*
D17*
G01*
X505000Y1175000D03*
D16*
G01*
X1405000Y1175000D03*
G01*
X1505000Y1175000D03*
G01*
X1605000Y1175000D03*
G01*
X1705000Y1175000D03*
G01*
X1805000Y1175000D03*
G01*
X1805000Y1475000D03*
G01*
X1705000Y1475000D03*
G01*
X1605000Y1475000D03*
G01*
X1505000Y1475000D03*
G01*
X1405000Y1475000D03*
D18*
G01*
X510000Y930000D03*
G01*
X610000Y930000D03*
G01*
X710000Y930000D03*
G01*
X810000Y930000D03*
G01*
X910000Y930000D03*
G01*
X1010000Y930000D03*
G01*
X1110000Y930000D03*
G01*
X1210000Y930000D03*
G01*
X1310000Y930000D03*
G01*
X1410000Y930000D03*
G01*
X1410000Y630000D03*
G01*
X1310000Y630000D03*
G01*
X1210000Y630000D03*
G01*
X1110000Y630000D03*
G01*
X810000Y630000D03*
G01*
X710000Y630000D03*
G01*
X1010000Y630000D03*
G01*
X910000Y630000D03*
G01*
X610000Y630000D03*
G01*
X510000Y630000D03*
D19*
G01*
X3699989Y584020D03*
G01*
X3699989Y2435979D03*
D18*
G01*
X3755889Y910199D03*
G01*
X3755889Y1019250D03*
G01*
X3755889Y1128310D03*
G01*
X3755889Y1237359D03*
G01*
X3755889Y1346419D03*
G01*
X3755889Y1455470D03*
G01*
X3755889Y1564529D03*
G01*
X3755889Y1673580D03*
G01*
X3755889Y1782640D03*
G01*
X3755889Y1891689D03*
G01*
X3755889Y2000749D03*
G01*
X3755889Y2109800D03*
G01*
X3644080Y855670D03*
G01*
X3644080Y964729D03*
G01*
X3644080Y1073780D03*
G01*
X3644080Y1182840D03*
G01*
X3644080Y1291889D03*
G01*
X3644080Y1400940D03*
G01*
X3644080Y1510000D03*
G01*
X3644080Y1619059D03*
G01*
X3644080Y1728110D03*
G01*
X3644080Y1837170D03*
G01*
X3644080Y1946219D03*
G01*
X3644080Y2055270D03*
D20*
G01*
X3644080Y2164330D03*
D21*
G01*
X3426260Y565000D03*
G01*
X3083739Y565000D03*
D18*
G01*
X495000Y2515000D03*
G01*
X595000Y2515000D03*
G01*
X695000Y2515000D03*
G01*
X795000Y2515000D03*
G01*
X895000Y2515000D03*
G01*
X995000Y2515000D03*
G01*
X1095000Y2515000D03*
G01*
X1195000Y2515000D03*
G01*
X1295000Y2515000D03*
G01*
X1395000Y2515000D03*
G01*
X1395000Y2215000D03*
G01*
X1295000Y2215000D03*
G01*
X1195000Y2215000D03*
G01*
X1095000Y2215000D03*
G01*
X795000Y2215000D03*
G01*
X695000Y2215000D03*
G01*
X995000Y2215000D03*
G01*
X895000Y2215000D03*
G01*
X595000Y2215000D03*
G01*
X495000Y2215000D03*
D22*
G01*
X1590000Y530000D03*
G01*
X1590000Y580000D03*
D23*
G01*
X1590000Y630000D03*
D24*
G01*
X2635000Y960000D03*
G01*
X2585000Y960000D03*
D25*
G01*
X2535000Y960000D03*
D24*
G01*
X2265000Y960000D03*
G01*
X2215000Y960000D03*
D25*
G01*
X2165000Y960000D03*
D15*
G01*
X3050000Y2205000D03*
G01*
X3450000Y2205000D03*
G01*
X3050000Y1860000D03*
G01*
X3450000Y1860000D03*
G01*
X3050000Y1745000D03*
G01*
X3450000Y1745000D03*
G01*
X3050000Y1625000D03*
G01*
X3450000Y1625000D03*
G01*
X3050000Y1510000D03*
G01*
X3450000Y1510000D03*
G01*
X3050000Y1390000D03*
G01*
X3450000Y1390000D03*
G01*
X3050000Y1275000D03*
G01*
X3450000Y1275000D03*
G01*
X3050000Y1160000D03*
G01*
X3450000Y1160000D03*
G01*
X3050000Y2320000D03*
G01*
X3450000Y2320000D03*
G01*
X3050000Y2435000D03*
G01*
X3450000Y2435000D03*
G01*
X3050000Y1975000D03*
G01*
X3450000Y1975000D03*
G01*
X1765000Y985000D03*
G01*
X1765000Y585000D03*
G01*
X1450000Y430000D03*
G01*
X1050000Y430000D03*
G01*
X3450000Y2090000D03*
G01*
X3050000Y2090000D03*
G01*
X3450000Y695000D03*
G01*
X3050000Y695000D03*
G01*
X3450000Y815000D03*
G01*
X3050000Y815000D03*
G01*
X3450000Y930000D03*
G01*
X3050000Y930000D03*
G01*
X3450000Y1045000D03*
G01*
X3050000Y1045000D03*
G01*
X1040000Y1620000D03*
G01*
X1040000Y2020000D03*
G01*
X905000Y1620000D03*
G01*
X905000Y2020000D03*
G01*
X775000Y1625000D03*
G01*
X775000Y2025000D03*
G01*
X645000Y1625000D03*
G01*
X645000Y2025000D03*
G01*
X505000Y1630000D03*
G01*
X505000Y2030000D03*
G01*
X2665000Y1600000D03*
G01*
X2265000Y1600000D03*
G01*
X2665000Y1770000D03*
G01*
X2265000Y1770000D03*
G01*
X2670000Y1925000D03*
G01*
X2270000Y1925000D03*
G01*
X2675000Y2085000D03*
G01*
X2275000Y2085000D03*
G01*
X2675000Y2255000D03*
G01*
X2275000Y2255000D03*
G01*
X1505000Y1635000D03*
G01*
X1905000Y1635000D03*
G01*
X2715000Y820000D03*
G01*
X2715000Y420000D03*
G01*
X2530000Y820000D03*
G01*
X2530000Y420000D03*
G01*
X2345000Y820000D03*
G01*
X2345000Y420000D03*
G01*
X2160000Y815000D03*
G01*
X2160000Y415000D03*
D26*
G01*
X1305000Y1065000D03*
G01*
X1405000Y1065000D03*
G01*
X350000Y730000D03*
G01*
X350000Y630000D03*
G01*
X345000Y2315000D03*
G01*
X345000Y2215000D03*
D27*
G01*
X800000Y430000D03*
G01*
X900000Y430000D03*
D28*
G01*
X1695000Y910010D03*
G01*
X1965000Y1195010D03*
G01*
X1965000Y1685010D03*
G01*
X1695000Y1800010D03*
G01*
X1295000Y1800010D03*
G01*
X1715000Y420010D03*
G01*
X2715000Y580010D03*
G01*
X2935000Y1270010D03*
G01*
X2895000Y1155010D03*
G01*
X1500000Y1000010D03*
G01*
X945000Y1105010D03*
G01*
X1440379Y1550010D03*
G01*
X2520000Y2175010D03*
G01*
X3220000Y2510010D03*
G01*
X3015000Y305010D03*
G01*
X3015079Y345010D03*
G01*
X2440000Y490010D03*
G01*
X2075000Y660010D03*
G01*
X2020000Y1195010D03*
G01*
X2020000Y410010D03*
G01*
X2075000Y410000D03*
G01*
X2055000Y1205000D03*
G01*
X2125000Y1635000D03*
M02*
