G04 Layer: BottomLayer*
G04 EasyEDA v6.5.39, 2024-10-24 09:54:27*
G04 028e3914a6f949ed9ca799ef75e4ed4f,10*
G04 Gerber Generator version 0.2*
G04 Scale: 100 percent, Rotated: No, Reflected: No *
G04 Dimensions in inches *
G04 leading zeros omitted , absolute positions ,3 integer and 6 decimal *
%FSLAX36Y36*%
%MOIN*%

%ADD10C,0.0500*%
%ADD11C,0.0100*%
%ADD12O,0.06X0.08*%
%ADD13O,0.06299199999999999X0.06299199999999999*%
%ADD14R,0.0630X0.0630*%
%ADD15C,0.0591*%
%ADD16C,0.1968*%
%ADD17R,0.0591X0.0591*%
%ADD18C,0.0709*%
%ADD19O,0.06299199999999999X0.035433*%
%ADD20R,0.0630X0.0354*%
%ADD21O,0.035433X0.06299199999999999*%
%ADD22R,0.0354X0.0630*%
%ADD23C,0.0787*%
%ADD24C,0.0550*%
%ADD25C,0.0600*%
%ADD26C,0.0244*%
%ADD27C,0.0129*%

%LPD*%
D10*
X530000Y2515000D02*
G01*
X530000Y2420000D01*
X450000Y2340000D01*
X450000Y2235000D01*
X430000Y2215000D01*
X3850000Y215000D02*
G01*
X3849399Y584000D01*
X1525000Y768899D02*
G01*
X1526099Y770000D01*
X1845000Y770000D01*
X1845000Y420000D01*
X1650000Y420000D01*
D11*
X2010000Y660000D02*
G01*
X2010000Y815000D01*
X2095000Y815000D01*
X2375000Y490000D02*
G01*
X2375000Y820000D01*
X2465000Y820000D01*
X3750000Y215000D02*
G01*
X3750000Y345000D01*
X2945000Y345000D01*
X3650000Y215000D02*
G01*
X3650000Y305000D01*
X2950000Y305000D01*
X3155000Y2510000D02*
G01*
X3155000Y750000D01*
X3330000Y750000D01*
X3385000Y695000D01*
X1130000Y2215000D02*
G01*
X1185000Y2270000D01*
X2005000Y2270000D01*
X2005000Y2175000D01*
X2455000Y2175000D01*
D10*
X285000Y730000D02*
G01*
X150000Y730000D01*
X150000Y930000D01*
X445000Y930000D01*
X280000Y2315000D02*
G01*
X155000Y2315000D01*
X150000Y930000D01*
X445000Y930000D01*
D11*
X645000Y930000D02*
G01*
X645000Y1055000D01*
X590000Y1110000D01*
X590000Y1330000D01*
X1190000Y1330000D01*
X1185000Y1335000D01*
X1185000Y1550000D01*
X1230000Y1550000D01*
X1375379Y1550000D01*
X880000Y1105000D02*
G01*
X845000Y1070000D01*
X845000Y930000D01*
X1435000Y1000000D02*
G01*
X1105000Y1000000D01*
X1045000Y940000D01*
X1045000Y930000D01*
X2830000Y1155000D02*
G01*
X2835000Y1160000D01*
X2985000Y1160000D01*
X2870000Y1270000D02*
G01*
X2875000Y1275000D01*
X2985000Y1275000D01*
D10*
X3635000Y2435999D02*
G01*
X3950000Y2435000D01*
X3945000Y2430000D01*
X3945000Y625000D01*
X3945000Y585000D01*
X3635000Y584000D01*
D11*
X2985000Y1045000D02*
G01*
X3085000Y1045000D01*
X3085000Y2090000D01*
X2985000Y2090000D01*
D10*
X3018739Y565000D02*
G01*
X3018530Y565210D01*
X2750000Y565210D01*
D11*
X3361260Y565000D02*
G01*
X3231260Y695000D01*
X2985000Y695000D01*
X3579075Y855675D02*
G01*
X3418400Y695000D01*
X3385000Y695000D01*
X3579075Y964735D02*
G01*
X3429340Y815000D01*
X3385000Y815000D01*
X3579075Y1073784D02*
G01*
X3435290Y930000D01*
X3385000Y930000D01*
X3579075Y1182845D02*
G01*
X3441229Y1045000D01*
X3385000Y1045000D01*
X3579075Y1291894D02*
G01*
X3447179Y1160000D01*
X3385000Y1160000D01*
X3579075Y1400945D02*
G01*
X3453130Y1275000D01*
X3385000Y1275000D01*
X3579075Y1510005D02*
G01*
X3459070Y1390000D01*
X3385000Y1390000D01*
X1030000Y2515000D02*
G01*
X1110000Y2595000D01*
X2875000Y2595000D01*
X2905000Y2565000D01*
X2905000Y1975000D01*
X2985000Y1975000D01*
X2985000Y815000D02*
G01*
X2985000Y1045000D01*
X2985000Y695000D02*
G01*
X2985000Y815000D01*
X3579075Y1619065D02*
G01*
X3470010Y1510000D01*
X3385000Y1510000D01*
X3579075Y1728114D02*
G01*
X3475959Y1625000D01*
X3385000Y1625000D01*
X3579075Y1837175D02*
G01*
X3486899Y1745000D01*
X3385000Y1745000D01*
X3579075Y1946224D02*
G01*
X3492849Y1860000D01*
X3385000Y1860000D01*
X3690883Y2000754D02*
G01*
X3505000Y2000754D01*
X3415753Y2090000D01*
X3385000Y2090000D01*
X3579076Y2055275D02*
G01*
X3429353Y2205000D01*
X3385000Y2205000D01*
X3579076Y2164335D02*
G01*
X3423413Y2320000D01*
X3385000Y2320000D01*
X3690897Y2109800D02*
G01*
X3690073Y2225185D01*
X3630258Y2285000D01*
X3555000Y2285000D01*
X3405000Y2435000D01*
X3385000Y2435000D01*
D10*
X3690884Y1019254D02*
G01*
X3690884Y910205D01*
X3690884Y1128314D02*
G01*
X3690884Y1019254D01*
X3690884Y1237364D02*
G01*
X3690884Y1128314D01*
X3690884Y1346424D02*
G01*
X3690884Y1237364D01*
X3690884Y1455475D02*
G01*
X3690884Y1346424D01*
X3690884Y1564535D02*
G01*
X3690884Y1455475D01*
X3690884Y1673584D02*
G01*
X3690884Y1564535D01*
X3690884Y1782645D02*
G01*
X3690884Y1673584D01*
X3690884Y1782645D02*
G01*
X3692319Y1781210D01*
X3945000Y1781210D01*
X2650000Y820000D02*
G01*
X2650000Y580000D01*
D11*
X1230000Y1800000D02*
G01*
X1230000Y2215000D01*
X1910000Y1685000D02*
G01*
X1910000Y1800000D01*
X1630000Y1800000D01*
X1700000Y985000D02*
G01*
X1910000Y985000D01*
X1910000Y1195000D01*
X1230000Y2515000D02*
G01*
X1080000Y2365000D01*
X1080000Y2140000D01*
X975000Y2035000D01*
X975000Y2020000D01*
X1640000Y1175000D02*
G01*
X1630000Y1165000D01*
X1630000Y910000D01*
D10*
X2600000Y1600000D02*
G01*
X2750000Y1600000D01*
X2750000Y340000D01*
X2465000Y340000D01*
X1545000Y1475000D02*
G01*
X1645000Y1475000D01*
X1540000Y1475000D02*
G01*
X1540000Y2215000D01*
X1330000Y2215000D01*
X1740000Y1475000D02*
G01*
X2195000Y1475000D01*
X2200000Y1470000D01*
X2200000Y960000D01*
D11*
X1540000Y1175000D02*
G01*
X1540000Y1240000D01*
X2150000Y1240000D01*
X2150000Y960000D01*
D10*
X1340000Y1065000D02*
G01*
X1520000Y1065000D01*
X1525000Y1060000D01*
X1525000Y630000D01*
X1340000Y1175000D02*
G01*
X1340000Y1065000D01*
X1240000Y1175000D02*
G01*
X1240000Y1065000D01*
D11*
X1140000Y1475000D02*
G01*
X1140000Y1375000D01*
X485000Y1375000D01*
X485000Y1550000D01*
X510000Y1575000D01*
X510000Y2090000D01*
X530000Y2110000D01*
X530000Y2215000D01*
X1040000Y1475000D02*
G01*
X1040000Y1405000D01*
X790000Y1405000D01*
X790000Y1535000D01*
X775000Y1550000D01*
X775000Y2075000D01*
X730000Y2120000D01*
X730000Y2215000D01*
X940000Y1475000D02*
G01*
X910000Y1505000D01*
X910000Y2060000D01*
X930000Y2080000D01*
X930000Y2215000D01*
X1145000Y930000D02*
G01*
X1085000Y870000D01*
X890000Y870000D01*
X890000Y1055000D01*
X940000Y1105000D01*
X940000Y1175000D01*
D10*
X285000Y730000D02*
G01*
X150000Y730000D01*
X150000Y340000D01*
X740000Y340000D01*
X740000Y435000D01*
X735000Y430000D02*
G01*
X735000Y340000D01*
X1750000Y340000D01*
X1750000Y215000D02*
G01*
X1750000Y340000D01*
X2095000Y340000D01*
X2095000Y415000D01*
X2650000Y820000D02*
G01*
X2570000Y900000D01*
X2570000Y960000D01*
X2570000Y960000D02*
G01*
X2570000Y1070000D01*
X2200000Y1070000D01*
X2280000Y820000D02*
G01*
X2200000Y900000D01*
X2200000Y960000D01*
D11*
X945000Y930000D02*
G01*
X1040000Y1025000D01*
X1040000Y1175000D01*
X985000Y430000D02*
G01*
X835000Y430000D01*
X1385000Y430000D02*
G01*
X1520000Y430000D01*
X1525000Y435000D01*
X1525000Y530000D01*
X1700000Y585000D02*
G01*
X1530000Y585000D01*
X1525000Y580000D01*
D10*
X1345000Y630000D02*
G01*
X1525000Y630000D01*
X430000Y2215000D02*
G01*
X280000Y2215000D01*
X280000Y2315000D02*
G01*
X280000Y2365000D01*
X430000Y2515000D01*
D11*
X1145000Y630000D02*
G01*
X940000Y835000D01*
X795000Y835000D01*
X795000Y1055000D01*
X740000Y1110000D01*
X740000Y1175000D01*
X945000Y630000D02*
G01*
X785000Y790000D01*
X695000Y790000D01*
X695000Y1055000D01*
X640000Y1110000D01*
X640000Y1175000D01*
X745000Y630000D02*
G01*
X745000Y655000D01*
X599346Y800653D01*
X599346Y1050000D01*
X540000Y1109346D01*
X540000Y1175000D01*
D10*
X2600000Y1770000D02*
G01*
X2600000Y1600000D01*
X2605000Y1925000D02*
G01*
X2605000Y1775000D01*
X2600000Y1770000D01*
X2610000Y2085000D02*
G01*
X2610000Y1930000D01*
X2605000Y1925000D01*
X2610000Y2255000D02*
G01*
X2610000Y2085000D01*
X2465000Y420000D02*
G01*
X2465000Y340000D01*
X2095000Y340000D01*
X2095000Y415000D01*
D11*
X1440000Y1635000D02*
G01*
X1440000Y1475000D01*
D10*
X1840000Y1635000D02*
G01*
X1740000Y1535000D01*
X1740000Y1475000D01*
X285000Y630000D02*
G01*
X445000Y630000D01*
D11*
X545000Y930000D02*
G01*
X545000Y875000D01*
X450000Y780000D01*
X450000Y635000D01*
X445000Y630000D01*
D10*
X1340000Y1175000D02*
G01*
X1340000Y1275000D01*
X1540000Y1475000D01*
D11*
X3950000Y215000D02*
G01*
X3950000Y115000D01*
X2650000Y420000D02*
G01*
X2520000Y550000D01*
X2520000Y960000D01*
X2280000Y420000D02*
G01*
X2150000Y550000D01*
X2150000Y960000D01*
X2465000Y820000D02*
G01*
X2470000Y825000D01*
X2470000Y960000D01*
X2095000Y815000D02*
G01*
X2100000Y820000D01*
X2100000Y960000D01*
D12*
G01*
X50000Y215000D03*
G01*
X3750000Y215000D03*
G01*
X3650000Y215000D03*
G01*
X3550000Y215000D03*
G01*
X3450000Y215000D03*
G01*
X3350000Y215000D03*
G01*
X3250000Y215000D03*
G01*
X3150000Y215000D03*
G01*
X3050000Y215000D03*
G01*
X2950000Y215000D03*
G01*
X2850000Y215000D03*
G01*
X2750000Y215000D03*
G01*
X2650000Y215000D03*
G01*
X2550000Y215000D03*
G01*
X2450000Y215000D03*
G01*
X2350000Y215000D03*
G01*
X2250000Y215000D03*
G01*
X2150000Y215000D03*
G01*
X2050000Y215000D03*
G01*
X1950000Y215000D03*
G01*
X1850000Y215000D03*
G01*
X1750000Y215000D03*
G01*
X1650000Y215000D03*
G01*
X1550000Y215000D03*
G01*
X1450000Y215000D03*
G01*
X1350000Y215000D03*
G01*
X1250000Y215000D03*
G01*
X1150000Y215000D03*
G01*
X1050000Y215000D03*
G01*
X950000Y215000D03*
G01*
X850000Y215000D03*
G01*
X750000Y215000D03*
G01*
X650000Y215000D03*
G01*
X550000Y215000D03*
G01*
X450000Y215000D03*
G01*
X350000Y215000D03*
G01*
X250000Y215000D03*
G01*
X150000Y215000D03*
G01*
X3850000Y215000D03*
G01*
X3950000Y215000D03*
G01*
X50000Y115000D03*
G01*
X3750000Y115000D03*
G01*
X3650000Y115000D03*
G01*
X3550000Y115000D03*
G01*
X3450000Y115000D03*
G01*
X3350000Y115000D03*
G01*
X3250000Y115000D03*
G01*
X3150000Y115000D03*
G01*
X3050000Y115000D03*
G01*
X2950000Y115000D03*
G01*
X2850000Y115000D03*
G01*
X2750000Y115000D03*
G01*
X2650000Y115000D03*
G01*
X2550000Y115000D03*
G01*
X2450000Y115000D03*
G01*
X2350000Y115000D03*
G01*
X2250000Y115000D03*
G01*
X2150000Y115000D03*
G01*
X2050000Y115000D03*
G01*
X1950000Y115000D03*
G01*
X1850000Y115000D03*
G01*
X1750000Y115000D03*
G01*
X1650000Y115000D03*
G01*
X1550000Y115000D03*
G01*
X1450000Y115000D03*
G01*
X1350000Y115000D03*
G01*
X1250000Y115000D03*
G01*
X1150000Y115000D03*
G01*
X1050000Y115000D03*
G01*
X950000Y115000D03*
G01*
X850000Y115000D03*
G01*
X750000Y115000D03*
G01*
X650000Y115000D03*
G01*
X550000Y115000D03*
G01*
X450000Y115000D03*
G01*
X350000Y115000D03*
G01*
X250000Y115000D03*
G01*
X150000Y115000D03*
G01*
X3850000Y115000D03*
G01*
X3950000Y115000D03*
D13*
G01*
X640000Y1475000D03*
G01*
X740000Y1475000D03*
G01*
X840000Y1475000D03*
G01*
X940000Y1475000D03*
G01*
X1040000Y1475000D03*
G01*
X1140000Y1475000D03*
G01*
X1240000Y1475000D03*
G01*
X1240000Y1175000D03*
G01*
X540000Y1475000D03*
G01*
X440000Y1475000D03*
G01*
X1140000Y1175000D03*
G01*
X1040000Y1175000D03*
G01*
X940000Y1175000D03*
G01*
X840000Y1175000D03*
G01*
X740000Y1175000D03*
G01*
X640000Y1175000D03*
G01*
X540000Y1175000D03*
D14*
G01*
X440000Y1175000D03*
D13*
G01*
X1340000Y1175000D03*
G01*
X1440000Y1175000D03*
G01*
X1540000Y1175000D03*
G01*
X1640000Y1175000D03*
G01*
X1740000Y1175000D03*
G01*
X1740000Y1475000D03*
G01*
X1640000Y1475000D03*
G01*
X1540000Y1475000D03*
G01*
X1440000Y1475000D03*
G01*
X1340000Y1475000D03*
D15*
G01*
X445000Y930000D03*
G01*
X545000Y930000D03*
G01*
X645000Y930000D03*
G01*
X745000Y930000D03*
G01*
X845000Y930000D03*
G01*
X945000Y930000D03*
G01*
X1045000Y930000D03*
G01*
X1145000Y930000D03*
G01*
X1245000Y930000D03*
G01*
X1345000Y930000D03*
G01*
X1345000Y630000D03*
G01*
X1245000Y630000D03*
G01*
X1145000Y630000D03*
G01*
X1045000Y630000D03*
G01*
X745000Y630000D03*
G01*
X645000Y630000D03*
G01*
X945000Y630000D03*
G01*
X845000Y630000D03*
G01*
X545000Y630000D03*
G01*
X445000Y630000D03*
D16*
G01*
X3634984Y584025D03*
G01*
X3634984Y2435985D03*
D15*
G01*
X3690884Y910205D03*
G01*
X3690884Y1019254D03*
G01*
X3690884Y1128314D03*
G01*
X3690884Y1237364D03*
G01*
X3690884Y1346424D03*
G01*
X3690884Y1455475D03*
G01*
X3690884Y1564535D03*
G01*
X3690884Y1673584D03*
G01*
X3690884Y1782645D03*
G01*
X3690884Y1891694D03*
G01*
X3690884Y2000754D03*
G01*
X3690884Y2109805D03*
G01*
X3579075Y855675D03*
G01*
X3579075Y964735D03*
G01*
X3579075Y1073784D03*
G01*
X3579075Y1182845D03*
G01*
X3579075Y1291894D03*
G01*
X3579075Y1400945D03*
G01*
X3579075Y1510005D03*
G01*
X3579075Y1619065D03*
G01*
X3579075Y1728114D03*
G01*
X3579075Y1837175D03*
G01*
X3579075Y1946224D03*
G01*
X3579075Y2055275D03*
D17*
G01*
X3579075Y2164335D03*
D18*
G01*
X3361260Y565000D03*
G01*
X3018739Y565000D03*
D15*
G01*
X430000Y2515000D03*
G01*
X530000Y2515000D03*
G01*
X630000Y2515000D03*
G01*
X730000Y2515000D03*
G01*
X830000Y2515000D03*
G01*
X930000Y2515000D03*
G01*
X1030000Y2515000D03*
G01*
X1130000Y2515000D03*
G01*
X1230000Y2515000D03*
G01*
X1330000Y2515000D03*
G01*
X1330000Y2215000D03*
G01*
X1230000Y2215000D03*
G01*
X1130000Y2215000D03*
G01*
X1030000Y2215000D03*
G01*
X730000Y2215000D03*
G01*
X630000Y2215000D03*
G01*
X930000Y2215000D03*
G01*
X830000Y2215000D03*
G01*
X530000Y2215000D03*
G01*
X430000Y2215000D03*
D19*
G01*
X1525000Y530000D03*
G01*
X1525000Y580000D03*
D20*
G01*
X1525000Y630000D03*
D21*
G01*
X2570000Y960000D03*
G01*
X2520000Y960000D03*
D22*
G01*
X2470000Y960000D03*
D21*
G01*
X2200000Y960000D03*
G01*
X2150000Y960000D03*
D22*
G01*
X2100000Y960000D03*
D23*
G01*
X2985000Y2205000D03*
G01*
X3385000Y2205000D03*
G01*
X2985000Y1860000D03*
G01*
X3385000Y1860000D03*
G01*
X2985000Y1745000D03*
G01*
X3385000Y1745000D03*
G01*
X2985000Y1625000D03*
G01*
X3385000Y1625000D03*
G01*
X2985000Y1510000D03*
G01*
X3385000Y1510000D03*
G01*
X2985000Y1390000D03*
G01*
X3385000Y1390000D03*
G01*
X2985000Y1275000D03*
G01*
X3385000Y1275000D03*
G01*
X2985000Y1160000D03*
G01*
X3385000Y1160000D03*
G01*
X2985000Y2320000D03*
G01*
X3385000Y2320000D03*
G01*
X2985000Y2435000D03*
G01*
X3385000Y2435000D03*
G01*
X2985000Y1975000D03*
G01*
X3385000Y1975000D03*
G01*
X1700000Y985000D03*
G01*
X1700000Y585000D03*
G01*
X1385000Y430000D03*
G01*
X985000Y430000D03*
G01*
X3385000Y2090000D03*
G01*
X2985000Y2090000D03*
G01*
X3385000Y695000D03*
G01*
X2985000Y695000D03*
G01*
X3385000Y815000D03*
G01*
X2985000Y815000D03*
G01*
X3385000Y930000D03*
G01*
X2985000Y930000D03*
G01*
X3385000Y1045000D03*
G01*
X2985000Y1045000D03*
G01*
X975000Y1620000D03*
G01*
X975000Y2020000D03*
G01*
X840000Y1620000D03*
G01*
X840000Y2020000D03*
G01*
X710000Y1625000D03*
G01*
X710000Y2025000D03*
G01*
X580000Y1625000D03*
G01*
X580000Y2025000D03*
G01*
X440000Y1630000D03*
G01*
X440000Y2030000D03*
G01*
X2600000Y1600000D03*
G01*
X2200000Y1600000D03*
G01*
X2600000Y1770000D03*
G01*
X2200000Y1770000D03*
G01*
X2605000Y1925000D03*
G01*
X2205000Y1925000D03*
G01*
X2610000Y2085000D03*
G01*
X2210000Y2085000D03*
G01*
X2610000Y2255000D03*
G01*
X2210000Y2255000D03*
G01*
X1440000Y1635000D03*
G01*
X1840000Y1635000D03*
G01*
X2650000Y820000D03*
G01*
X2650000Y420000D03*
G01*
X2465000Y820000D03*
G01*
X2465000Y420000D03*
G01*
X2280000Y820000D03*
G01*
X2280000Y420000D03*
G01*
X2095000Y815000D03*
G01*
X2095000Y415000D03*
D24*
G01*
X1240000Y1065000D03*
G01*
X1340000Y1065000D03*
G01*
X285000Y730000D03*
G01*
X285000Y630000D03*
G01*
X280000Y2315000D03*
G01*
X280000Y2215000D03*
D25*
G01*
X735000Y430000D03*
G01*
X835000Y430000D03*
D26*
G01*
X1630000Y910000D03*
G01*
X1910000Y1195000D03*
G01*
X1910000Y1685000D03*
G01*
X1630000Y1800000D03*
G01*
X1230000Y1800000D03*
G01*
X1650000Y420000D03*
G01*
X2650000Y580000D03*
G01*
X2870000Y1270000D03*
G01*
X2830000Y1155000D03*
G01*
X1435000Y1000000D03*
G01*
X880000Y1105000D03*
G01*
X1375379Y1550000D03*
G01*
X2455000Y2175000D03*
G01*
X3155000Y2510000D03*
G01*
X2950000Y305000D03*
G01*
X2950081Y345000D03*
G01*
X2375000Y490000D03*
G01*
X2010000Y660000D03*
M02*
