G04 Layer: TopSolderMaskLayer*
G04 EasyEDA v6.5.39, 2024-10-24 09:54:27*
G04 028e3914a6f949ed9ca799ef75e4ed4f,10*
G04 Gerber Generator version 0.2*
G04 Scale: 100 percent, Rotated: No, Reflected: No *
G04 Dimensions in inches *
G04 leading zeros omitted , absolute positions ,3 integer and 6 decimal *
%FSLAX36Y36*%
%MOIN*%

%AMMACRO1*1,1,$1,$2,$3*1,1,$1,$4,$5*1,1,$1,0-$2,0-$3*1,1,$1,0-$4,0-$5*20,1,$1,$2,$3,$4,$5,0*20,1,$1,$4,$5,0-$2,0-$3,0*20,1,$1,0-$2,0-$3,0-$4,0-$5,0*20,1,$1,0-$4,0-$5,$2,$3,0*4,1,4,$2,$3,$4,$5,0-$2,0-$3,0-$4,0-$5,$2,$3,0*%
%ADD10O,0.064X0.084*%
%ADD11O,0.066992X0.066992*%
%ADD12R,0.0670X0.0670*%
%ADD13C,0.0631*%
%ADD14C,0.2008*%
%ADD15C,0.0630*%
%ADD16R,0.0630X0.0630*%
%ADD17C,0.0749*%
%ADD18O,0.066992X0.039432999999999996*%
%ADD19MACRO1,0.004X0.0315X0.0177X0.0315X-0.0177*%
%ADD20O,0.039432999999999996X0.066992*%
%ADD21MACRO1,0.004X-0.0177X0.0315X0.0177X0.0315*%
%ADD22C,0.0867*%
%ADD23C,0.0590*%
%ADD24C,0.0640*%
%ADD25C,0.0107*%

%LPD*%
D10*
G01*
X50000Y215000D03*
G01*
X3750000Y215000D03*
G01*
X3650000Y215000D03*
G01*
X3550000Y215000D03*
G01*
X3450000Y215000D03*
G01*
X3350000Y215000D03*
G01*
X3250000Y215000D03*
G01*
X3150000Y215000D03*
G01*
X3050000Y215000D03*
G01*
X2950000Y215000D03*
G01*
X2850000Y215000D03*
G01*
X2750000Y215000D03*
G01*
X2650000Y215000D03*
G01*
X2550000Y215000D03*
G01*
X2450000Y215000D03*
G01*
X2350000Y215000D03*
G01*
X2250000Y215000D03*
G01*
X2150000Y215000D03*
G01*
X2050000Y215000D03*
G01*
X1950000Y215000D03*
G01*
X1850000Y215000D03*
G01*
X1750000Y215000D03*
G01*
X1650000Y215000D03*
G01*
X1550000Y215000D03*
G01*
X1450000Y215000D03*
G01*
X1350000Y215000D03*
G01*
X1250000Y215000D03*
G01*
X1150000Y215000D03*
G01*
X1050000Y215000D03*
G01*
X950000Y215000D03*
G01*
X850000Y215000D03*
G01*
X750000Y215000D03*
G01*
X650000Y215000D03*
G01*
X550000Y215000D03*
G01*
X450000Y215000D03*
G01*
X350000Y215000D03*
G01*
X250000Y215000D03*
G01*
X150000Y215000D03*
G01*
X3850000Y215000D03*
G01*
X3950000Y215000D03*
G01*
X50000Y115000D03*
G01*
X3750000Y115000D03*
G01*
X3650000Y115000D03*
G01*
X3550000Y115000D03*
G01*
X3450000Y115000D03*
G01*
X3350000Y115000D03*
G01*
X3250000Y115000D03*
G01*
X3150000Y115000D03*
G01*
X3050000Y115000D03*
G01*
X2950000Y115000D03*
G01*
X2850000Y115000D03*
G01*
X2750000Y115000D03*
G01*
X2650000Y115000D03*
G01*
X2550000Y115000D03*
G01*
X2450000Y115000D03*
G01*
X2350000Y115000D03*
G01*
X2250000Y115000D03*
G01*
X2150000Y115000D03*
G01*
X2050000Y115000D03*
G01*
X1950000Y115000D03*
G01*
X1850000Y115000D03*
G01*
X1750000Y115000D03*
G01*
X1650000Y115000D03*
G01*
X1550000Y115000D03*
G01*
X1450000Y115000D03*
G01*
X1350000Y115000D03*
G01*
X1250000Y115000D03*
G01*
X1150000Y115000D03*
G01*
X1050000Y115000D03*
G01*
X950000Y115000D03*
G01*
X850000Y115000D03*
G01*
X750000Y115000D03*
G01*
X650000Y115000D03*
G01*
X550000Y115000D03*
G01*
X450000Y115000D03*
G01*
X350000Y115000D03*
G01*
X250000Y115000D03*
G01*
X150000Y115000D03*
G01*
X3850000Y115000D03*
G01*
X3950000Y115000D03*
D11*
G01*
X640000Y1475000D03*
G01*
X740000Y1475000D03*
G01*
X840000Y1475000D03*
G01*
X940000Y1475000D03*
G01*
X1040000Y1475000D03*
G01*
X1140000Y1475000D03*
G01*
X1240000Y1475000D03*
G01*
X1240000Y1175000D03*
G01*
X540000Y1475000D03*
G01*
X440000Y1475000D03*
G01*
X1140000Y1175000D03*
G01*
X1040000Y1175000D03*
G01*
X940000Y1175000D03*
G01*
X840000Y1175000D03*
G01*
X740000Y1175000D03*
G01*
X640000Y1175000D03*
G01*
X540000Y1175000D03*
D12*
G01*
X440000Y1175000D03*
D11*
G01*
X1340000Y1175000D03*
G01*
X1440000Y1175000D03*
G01*
X1540000Y1175000D03*
G01*
X1640000Y1175000D03*
G01*
X1740000Y1175000D03*
G01*
X1740000Y1475000D03*
G01*
X1640000Y1475000D03*
G01*
X1540000Y1475000D03*
G01*
X1440000Y1475000D03*
G01*
X1340000Y1475000D03*
D13*
G01*
X445000Y930000D03*
G01*
X545000Y930000D03*
G01*
X645000Y930000D03*
G01*
X745000Y930000D03*
G01*
X845000Y930000D03*
G01*
X945000Y930000D03*
G01*
X1045000Y930000D03*
G01*
X1145000Y930000D03*
G01*
X1245000Y930000D03*
G01*
X1345000Y930000D03*
G01*
X1345000Y630000D03*
G01*
X1245000Y630000D03*
G01*
X1145000Y630000D03*
G01*
X1045000Y630000D03*
G01*
X745000Y630000D03*
G01*
X645000Y630000D03*
G01*
X945000Y630000D03*
G01*
X845000Y630000D03*
G01*
X545000Y630000D03*
G01*
X445000Y630000D03*
D14*
G01*
X3634984Y584025D03*
G01*
X3634984Y2435985D03*
D15*
G01*
X3690884Y910205D03*
G01*
X3690884Y1019254D03*
G01*
X3690884Y1128314D03*
G01*
X3690884Y1237364D03*
G01*
X3690884Y1346424D03*
G01*
X3690884Y1455475D03*
G01*
X3690884Y1564535D03*
G01*
X3690884Y1673584D03*
G01*
X3690884Y1782645D03*
G01*
X3690884Y1891694D03*
G01*
X3690884Y2000754D03*
G01*
X3690884Y2109805D03*
G01*
X3579075Y855675D03*
G01*
X3579075Y964735D03*
G01*
X3579075Y1073784D03*
G01*
X3579075Y1182845D03*
G01*
X3579075Y1291894D03*
G01*
X3579075Y1400945D03*
G01*
X3579075Y1510005D03*
G01*
X3579075Y1619065D03*
G01*
X3579075Y1728114D03*
G01*
X3579075Y1837175D03*
G01*
X3579075Y1946224D03*
G01*
X3579075Y2055275D03*
D16*
G01*
X3579075Y2164335D03*
D17*
G01*
X3361260Y565000D03*
G01*
X3018739Y565000D03*
D13*
G01*
X430000Y2515000D03*
G01*
X530000Y2515000D03*
G01*
X630000Y2515000D03*
G01*
X730000Y2515000D03*
G01*
X830000Y2515000D03*
G01*
X930000Y2515000D03*
G01*
X1030000Y2515000D03*
G01*
X1130000Y2515000D03*
G01*
X1230000Y2515000D03*
G01*
X1330000Y2515000D03*
G01*
X1330000Y2215000D03*
G01*
X1230000Y2215000D03*
G01*
X1130000Y2215000D03*
G01*
X1030000Y2215000D03*
G01*
X730000Y2215000D03*
G01*
X630000Y2215000D03*
G01*
X930000Y2215000D03*
G01*
X830000Y2215000D03*
G01*
X530000Y2215000D03*
G01*
X430000Y2215000D03*
D18*
G01*
X1525000Y530000D03*
G01*
X1525000Y580000D03*
D19*
G01*
X1525000Y629999D03*
D20*
G01*
X2570000Y960000D03*
G01*
X2520000Y960000D03*
D21*
G01*
X2470000Y960000D03*
D20*
G01*
X2200000Y960000D03*
G01*
X2150000Y960000D03*
D21*
G01*
X2100000Y960000D03*
D22*
G01*
X2985000Y2205000D03*
G01*
X3385000Y2205000D03*
G01*
X2985000Y1860000D03*
G01*
X3385000Y1860000D03*
G01*
X2985000Y1745000D03*
G01*
X3385000Y1745000D03*
G01*
X2985000Y1625000D03*
G01*
X3385000Y1625000D03*
G01*
X2985000Y1510000D03*
G01*
X3385000Y1510000D03*
G01*
X2985000Y1390000D03*
G01*
X3385000Y1390000D03*
G01*
X2985000Y1275000D03*
G01*
X3385000Y1275000D03*
G01*
X2985000Y1160000D03*
G01*
X3385000Y1160000D03*
G01*
X2985000Y2320000D03*
G01*
X3385000Y2320000D03*
G01*
X2985000Y2435000D03*
G01*
X3385000Y2435000D03*
G01*
X2985000Y1975000D03*
G01*
X3385000Y1975000D03*
G01*
X1700000Y985000D03*
G01*
X1700000Y585000D03*
G01*
X1385000Y430000D03*
G01*
X985000Y430000D03*
G01*
X3385000Y2090000D03*
G01*
X2985000Y2090000D03*
G01*
X3385000Y695000D03*
G01*
X2985000Y695000D03*
G01*
X3385000Y815000D03*
G01*
X2985000Y815000D03*
G01*
X3385000Y930000D03*
G01*
X2985000Y930000D03*
G01*
X3385000Y1045000D03*
G01*
X2985000Y1045000D03*
G01*
X975000Y1620000D03*
G01*
X975000Y2020000D03*
G01*
X840000Y1620000D03*
G01*
X840000Y2020000D03*
G01*
X710000Y1625000D03*
G01*
X710000Y2025000D03*
G01*
X580000Y1625000D03*
G01*
X580000Y2025000D03*
G01*
X440000Y1630000D03*
G01*
X440000Y2030000D03*
G01*
X2600000Y1600000D03*
G01*
X2200000Y1600000D03*
G01*
X2600000Y1770000D03*
G01*
X2200000Y1770000D03*
G01*
X2605000Y1925000D03*
G01*
X2205000Y1925000D03*
G01*
X2610000Y2085000D03*
G01*
X2210000Y2085000D03*
G01*
X2610000Y2255000D03*
G01*
X2210000Y2255000D03*
G01*
X1440000Y1635000D03*
G01*
X1840000Y1635000D03*
G01*
X2650000Y820000D03*
G01*
X2650000Y420000D03*
G01*
X2465000Y820000D03*
G01*
X2465000Y420000D03*
G01*
X2280000Y820000D03*
G01*
X2280000Y420000D03*
G01*
X2095000Y815000D03*
G01*
X2095000Y415000D03*
D23*
G01*
X1240000Y1065000D03*
G01*
X1340000Y1065000D03*
G01*
X285000Y730000D03*
G01*
X285000Y630000D03*
G01*
X280000Y2315000D03*
G01*
X280000Y2215000D03*
D24*
G01*
X735000Y430000D03*
G01*
X835000Y430000D03*
M02*
